<?xml version="1.0" encoding="utf-8"?>
<!-- Generator: Adobe Illustrator 16.0.0, SVG Export Plug-In . SVG Version: 6.00 Build 0)  -->
<!DOCTYPE svg PUBLIC "-//W3C//DTD SVG 1.1//EN" "http://www.w3.org/Graphics/SVG/1.1/DTD/svg11.dtd">
<svg version="1.1" id="Layer_1" xmlns="http://www.w3.org/2000/svg" xmlns:xlink="http://www.w3.org/1999/xlink" x="0px" y="0px"
	 width="232.594px" height="309.095px" viewBox="0 0 232.594 309.095" enable-background="new 0 0 232.594 309.095"
	 xml:space="preserve">
<polyline fill="none" stroke="#000000" stroke-width="13" stroke-linecap="round" stroke-linejoin="round" stroke-miterlimit="10" points="
	121.857,138.951 128.429,173.5 136,199.951 "/>
<polyline fill="none" stroke="#000000" stroke-width="13" stroke-linecap="round" stroke-linejoin="round" stroke-miterlimit="10" points="
	123.5,208.5 130.5,244.556 133.357,277.556 "/>
<polyline fill="none" stroke="#000000" stroke-width="13" stroke-linecap="round" stroke-linejoin="round" stroke-miterlimit="10" points="
	106.781,219.056 107.016,253.056 104.531,287.056 "/>
<polygon fill="#FEE1CC" stroke="#000000" stroke-width="5" stroke-linecap="round" stroke-linejoin="round" stroke-miterlimit="10" points="
	120,187.402 137.5,179.902 146,200.402 133,210.902 122.5,202.902 128,197.902 "/>
<polygon fill="#C8E8E4" stroke="#000000" stroke-width="5" stroke-linecap="round" stroke-linejoin="round" stroke-miterlimit="10" points="
	89.732,122.556 141.787,127.667 144.253,173.056 150.766,214.055 77.628,219.056 85.299,166.056 "/>
<polyline fill="none" stroke="#000000" stroke-width="13" stroke-linecap="round" stroke-linejoin="round" stroke-miterlimit="10" points="
	111.924,138.951 101,169.451 105.773,199.951 "/>
<polygon fill="#FEE2CD" stroke="#000000" stroke-width="5" stroke-linecap="round" stroke-linejoin="round" stroke-miterlimit="10" points="
	85.393,44.444 85.393,82.056 95.281,115.556 114.878,121.056 137.667,119.667 142.059,81.556 142.059,44.444 "/>
<polygon stroke="#000000" stroke-width="5" stroke-linecap="round" stroke-linejoin="round" stroke-miterlimit="10" points="
	82.781,22.222 145.281,22.222 142.059,44.444 85.393,44.444 "/>
<polygon fill="#FEE1CC" points="138.625,69.25 147.809,88.625 136.309,90.375 "/>
<polyline fill="#FEE1CC" stroke="#000000" stroke-width="5" stroke-linecap="round" stroke-linejoin="round" stroke-miterlimit="10" points="
	142.059,71.167 151.875,90.375 141.757,92 "/>
<line fill="#FFFFFF" stroke="#000000" stroke-width="5" stroke-linecap="round" stroke-linejoin="round" stroke-miterlimit="10" x1="125.5" y1="56.056" x2="125.5" y2="75.179"/>
<line opacity="0" fill="#FFFFFF" stroke="#000000" stroke-width="5" stroke-linecap="round" stroke-linejoin="round" stroke-miterlimit="10" x1="142.757" y1="56.056" x2="142.757" y2="75.179"/>
<polygon fill="#C7E7E3" stroke="#000000" stroke-width="5" stroke-linecap="round" stroke-linejoin="round" stroke-miterlimit="10" points="
	122.542,282.931 158.618,282.931 170.118,293.931 117.396,293.931 "/>
<polygon fill="#C7E7E3" stroke="#000000" stroke-width="5" stroke-linecap="round" stroke-linejoin="round" stroke-miterlimit="10" points="
	137.797,283.306 144.297,293.556 88.297,292.806 97.297,283.306 "/>
<polyline stroke="#000000" stroke-width="5" stroke-linecap="round" stroke-linejoin="round" stroke-miterlimit="10" points="
	144.653,211.556 140.128,141.425 141.787,127.667 89.732,122.556 140.128,141.425 "/>
<polygon fill="#FEE1CC" stroke="#000000" stroke-width="5" stroke-linecap="round" stroke-linejoin="round" stroke-miterlimit="10" points="
	119.016,202.5 102.516,193 95.016,202.5 102.201,221.004 116.516,224 117.016,213.26 "/>
</svg>
