<?xml version="1.0" encoding="utf-8"?>
<!-- Generator: Adobe Illustrator 16.0.0, SVG Export Plug-In . SVG Version: 6.00 Build 0)  -->
<!DOCTYPE svg PUBLIC "-//W3C//DTD SVG 1.1//EN" "http://www.w3.org/Graphics/SVG/1.1/DTD/svg11.dtd">
<svg version="1.1" id="Layer_1" xmlns="http://www.w3.org/2000/svg" xmlns:xlink="http://www.w3.org/1999/xlink" x="0px" y="0px"
	 width="232.594px" height="309.095px" viewBox="0 0 232.594 309.095" enable-background="new 0 0 232.594 309.095"
	 xml:space="preserve">
<polyline fill="#FFFFFF" stroke="#000000" stroke-width="13" stroke-linecap="round" stroke-linejoin="round" stroke-miterlimit="10" points="
	144.031,135.056 168.42,164.056 180.781,196.056 "/>
<polyline fill="#FFFFFF" stroke="#000000" stroke-width="13" stroke-linecap="round" stroke-linejoin="round" stroke-miterlimit="10" points="
	85.844,135.056 60.281,163.056 50.781,196.056 "/>
<polyline fill="#FFFFFF" stroke="#000000" stroke-width="13" stroke-linecap="round" stroke-linejoin="round" stroke-miterlimit="10" points="
	138.281,216.556 149.281,249.556 149.781,282.556 "/>
<path fill="#FFFFFF" stroke="#000000" stroke-width="13" stroke-linecap="round" stroke-linejoin="round" stroke-miterlimit="10" d="
	M96.281,219.056c-0.5,5-4.5,37-4.5,37l2.25,31"/>
<polygon fill="#C8E8E4" stroke="#000000" stroke-width="5" stroke-linecap="round" stroke-linejoin="round" stroke-miterlimit="10" points="
	87.281,122.556 144.781,121.056 148.781,173.056 156.128,214.055 73.628,219.056 82.281,166.056 "/>
<polygon fill="#FEE2CD" stroke="#000000" stroke-width="5" stroke-linecap="round" stroke-linejoin="round" stroke-miterlimit="10" points="
	85.393,44.444 85.393,82.056 95.281,115.556 114.878,121.056 134.781,114.556 142.059,81.556 142.059,44.444 "/>
<polygon stroke="#000000" stroke-width="5" stroke-linecap="round" stroke-linejoin="round" stroke-miterlimit="10" points="
	82.781,22.222 145.281,22.222 142.059,44.444 85.393,44.444 "/>
<polyline fill="#FEE1CC" stroke="#000000" stroke-width="5" stroke-linecap="round" stroke-linejoin="round" stroke-miterlimit="10" points="
	114.878,78.056 122.781,93.679 114.878,93.679 "/>
<line fill="#FFFFFF" stroke="#000000" stroke-width="5" stroke-linecap="round" stroke-linejoin="round" stroke-miterlimit="10" x1="102.281" y1="56.056" x2="102.281" y2="75.179"/>
<line fill="#FFFFFF" stroke="#000000" stroke-width="5" stroke-linecap="round" stroke-linejoin="round" stroke-miterlimit="10" x1="128.281" y1="56.056" x2="128.281" y2="75.179"/>
<polygon fill="#C7E7E3" stroke="#000000" stroke-width="5" stroke-linecap="round" stroke-linejoin="round" stroke-miterlimit="10" points="
	147.205,282.556 183.281,282.556 194.781,293.556 142.059,293.556 "/>
<polygon fill="#C7E7E3" stroke="#000000" stroke-width="5" stroke-linecap="round" stroke-linejoin="round" stroke-miterlimit="10" points="
	100.281,283.306 106.781,293.556 50.781,292.806 59.781,283.306 "/>
<polyline stroke="#000000" stroke-width="5" stroke-linecap="round" stroke-linejoin="round" stroke-miterlimit="10" points="
	118.83,216.316 114.878,144.556 144.781,121.056 87.281,122.556 114.878,144.556 "/>
<polygon fill="#FEE1CC" stroke="#000000" stroke-width="5" stroke-linecap="round" stroke-linejoin="round" stroke-miterlimit="10" points="
	172.781,203.556 190.281,196.056 198.781,216.556 185.781,227.056 175.281,219.056 180.781,214.056 "/>
<polygon fill="#FEE1CC" stroke="#000000" stroke-width="5" stroke-linecap="round" stroke-linejoin="round" stroke-miterlimit="10" points="
	56.781,205.556 40.281,196.056 32.781,205.556 39.966,224.06 54.281,227.056 54.781,216.316 "/>
</svg>
