<?xml version="1.0" encoding="UTF-8" standalone="no"?>
<!-- Created with Inkscape (http://www.inkscape.org/) -->

<svg
   xmlns:dc="http://purl.org/dc/elements/1.1/"
   xmlns:cc="http://creativecommons.org/ns#"
   xmlns:rdf="http://www.w3.org/1999/02/22-rdf-syntax-ns#"
   xmlns:svg="http://www.w3.org/2000/svg"
   xmlns="http://www.w3.org/2000/svg"
   xmlns:xlink="http://www.w3.org/1999/xlink"
   xmlns:sodipodi="http://sodipodi.sourceforge.net/DTD/sodipodi-0.dtd"
   xmlns:inkscape="http://www.inkscape.org/namespaces/inkscape"
   width="507.72256"
   height="522.52393"
   id="svg2"
   version="1.1"
   inkscape:version="0.48.2 r9819"
   sodipodi:docname="iris.svg">
  <defs
     id="defs4">
    <linearGradient
       id="linearGradient3846">
      <stop
         id="stop3848"
         offset="0"
         style="stop-color:#7c1d92;stop-opacity:1;" />
      <stop
         style="stop-color:#e3a8a8;stop-opacity:1;"
         offset="0.60487515"
         id="stop3850" />
      <stop
         id="stop3852"
         offset="1"
         style="stop-color:#f7f4d6;stop-opacity:1;" />
    </linearGradient>
    <linearGradient
       id="linearGradient3828">
      <stop
         style="stop-color:#7c1d92;stop-opacity:1;"
         offset="0"
         id="stop3830" />
      <stop
         id="stop3836"
         offset="0.50826991"
         style="stop-color:#e3a8a8;stop-opacity:1;" />
      <stop
         style="stop-color:#f7f4d6;stop-opacity:1;"
         offset="1"
         id="stop3832" />
    </linearGradient>
    <linearGradient
       id="linearGradient3759">
      <stop
         style="stop-color:#652883;stop-opacity:1;"
         offset="0"
         id="stop3761" />
      <stop
         style="stop-color:#652883;stop-opacity:0;"
         offset="1"
         id="stop3763" />
    </linearGradient>
    <inkscape:path-effect
       effect="spiro"
       id="path-effect2987"
       is_visible="true" />
    <linearGradient
       inkscape:collect="always"
       xlink:href="#linearGradient3828"
       id="linearGradient3834"
       x1="329.11966"
       y1="490.90897"
       x2="333.42264"
       y2="260.59418"
       gradientUnits="userSpaceOnUse"
       gradientTransform="translate(143.44166,-125.25891)" />
    <linearGradient
       inkscape:collect="always"
       xlink:href="#linearGradient3846"
       id="linearGradient3844"
       x1="409.4332"
       y1="506.63367"
       x2="429.28659"
       y2="355.11075"
       gradientUnits="userSpaceOnUse"
       gradientTransform="translate(143.44166,-125.25891)" />
    <linearGradient
       inkscape:collect="always"
       xlink:href="#linearGradient3828"
       id="linearGradient3860"
       x1="253.9917"
       y1="496.01505"
       x2="215.49527"
       y2="360.6546"
       gradientUnits="userSpaceOnUse"
       gradientTransform="translate(143.44166,-125.25891)" />
    <linearGradient
       inkscape:collect="always"
       xlink:href="#linearGradient3828"
       id="linearGradient3068"
       gradientUnits="userSpaceOnUse"
       gradientTransform="translate(143.44166,-125.25891)"
       x1="329.11966"
       y1="490.90897"
       x2="329.85123"
       y2="436.30847" />
    <linearGradient
       inkscape:collect="always"
       xlink:href="#linearGradient3828"
       id="linearGradient3072"
       gradientUnits="userSpaceOnUse"
       gradientTransform="translate(143.44166,-125.25891)"
       x1="253.9917"
       y1="496.01505"
       x2="224.0667"
       y2="389.22604" />
  </defs>
  <sodipodi:namedview
     id="base"
     pagecolor="#ffffff"
     bordercolor="#666666"
     borderopacity="1.0"
     inkscape:pageopacity="0.0"
     inkscape:pageshadow="2"
     inkscape:zoom="2.8"
     inkscape:cx="273.51783"
     inkscape:cy="332.78986"
     inkscape:document-units="px"
     inkscape:current-layer="layer2"
     showgrid="false"
     inkscape:window-width="1600"
     inkscape:window-height="838"
     inkscape:window-x="-8"
     inkscape:window-y="-8"
     inkscape:window-maximized="1"
     fit-margin-top="0"
     fit-margin-left="0"
     fit-margin-right="0"
     fit-margin-bottom="0" />
  <metadata
     id="metadata7">
    <rdf:RDF>
      <cc:Work
         rdf:about="">
        <dc:format>image/svg+xml</dc:format>
        <dc:type
           rdf:resource="http://purl.org/dc/dcmitype/StillImage" />
        <dc:title />
      </cc:Work>
    </rdf:RDF>
  </metadata>
  <g
     inkscape:groupmode="layer"
     id="layer2"
     inkscape:label="0"
     style="display:inline"
     transform="translate(-227.79504,-135.96041)">
    <path
       sodipodi:nodetypes="cssssc"
       inkscape:connector-curvature="0"
       id="path3050"
       d="m 448.73181,457.06545 c -15.42974,-13.63818 -34.03536,-11.95771 -11.20089,-39.67079 21.90819,-26.58889 1.63522,-38.7078 5.47278,-83.74985 1.62707,-19.0971 -14.58239,-133.90755 16.16245,-125.23789 19.18418,5.40971 22.65935,155.59517 55.38508,129.2785 20.28492,-16.31229 -86.02247,73.64832 -65.81942,119.38003 z"
       style="fill:#652883;fill-opacity:1;stroke:#000000;stroke-width:8;stroke-linecap:round;stroke-linejoin:round;stroke-miterlimit:4;stroke-opacity:1;stroke-dasharray:none;display:inline" />
    <path
       style="fill:#652883;fill-opacity:1;stroke:#000000;stroke-width:8;stroke-linecap:round;stroke-linejoin:round;stroke-miterlimit:4;stroke-opacity:1;stroke-dasharray:none;display:inline"
       d="m 501.02862,448.63759 c 27.53415,-17.02758 16.31296,-40.52229 16.19727,-71.24293 -0.14359,-38.13182 -3.62878,-81.63087 -6.51267,-52.63668 -2.2256,22.37589 -26.15349,-111.06095 -40.22769,-107.85715 -8.4509,1.92374 21.98965,39.84648 21.45321,91.06814 -0.86872,82.94778 29.29293,94.93691 9.08988,140.66862 z"
       id="path3052"
       inkscape:connector-curvature="0"
       sodipodi:nodetypes="cssssc" />
    <path
       sodipodi:nodetypes="csssc"
       inkscape:connector-curvature="0"
       id="path3054"
       d="m 478.81231,426.06761 c 58.58884,-48.48733 17.84992,36.30602 33.68676,15.38507 30.50868,-40.30289 -25.25283,-198.35193 -44.05442,-195.66203 -15.96067,2.28346 -64.01869,133.20871 -19.52361,188.49815 33.91806,42.14647 -16.57575,-34.48516 29.89127,-8.22119 z"
       style="fill:#652883;fill-opacity:1;stroke:#000000;stroke-width:8;stroke-linecap:round;stroke-linejoin:round;stroke-miterlimit:4;stroke-opacity:1;stroke-dasharray:none;display:inline" />
    <path
       sodipodi:nodetypes="cssscc"
       inkscape:connector-curvature="0"
       id="path3056"
       d="m 466.29881,426.38899 c 0,0 -8.00073,-22.55257 -8.00073,-66.83828 0,-44.28571 5.85787,-68.16173 18.71501,-68.16173 12.85715,0 22.18491,20.42713 20.75634,60.42713 -1.42857,40 -11.47063,73.85859 -11.47063,73.85859 z"
       style="fill:url(#linearGradient3068);fill-opacity:1;stroke:#000000;stroke-width:8;stroke-linecap:round;stroke-linejoin:round;stroke-miterlimit:4;stroke-opacity:1;stroke-dasharray:none;display:inline" />
    <path
       sodipodi:nodetypes="cssscc"
       inkscape:connector-curvature="0"
       id="path3058"
       d="m 454.87024,419.96041 c -4.28571,7.85714 -18.57143,-22.85714 -11.42857,-68.57142 8.39785,-53.74626 27.14285,-87.85715 38.57142,-92.14286 11.42857,-4.28572 -26.97447,46.1565 -27.85714,81.42857 -0.88055,35.18719 -0.21871,61.43928 7.85714,72.14286 z"
       style="fill:url(#linearGradient3072);fill-opacity:1;stroke:#000000;stroke-width:8;stroke-linecap:round;stroke-linejoin:round;stroke-miterlimit:4;stroke-opacity:1;stroke-dasharray:none;display:inline" />
    <path
       sodipodi:nodetypes="cssssc"
       inkscape:connector-curvature="0"
       id="path3060"
       d="m 494.87023,414.24613 c -6.42857,-7.85714 -20,-7.14286 -7.14286,-48.57143 12.85715,-41.42857 -37.14286,-101.42857 -22.85714,-98.57143 14.28571,2.85714 54.28572,80.71429 37.14286,107.85715 -17.14286,27.14286 -2.14286,45.71428 -10.71429,48.57143 -8.57143,2.85714 3.57143,-9.28572 3.57143,-9.28572 z"
       style="fill:url(#linearGradient3844);fill-opacity:1;stroke:#000000;stroke-width:8;stroke-linecap:round;stroke-linejoin:round;stroke-miterlimit:4;stroke-opacity:1;stroke-dasharray:none;display:inline" />
  </g>
  <g
     inkscape:label="1"
     inkscape:groupmode="layer"
     id="layer1"
     style="display:none"
     transform="translate(-227.79504,-135.96041)">
    <path
       style="fill:#652883;fill-opacity:1;stroke:#000000;stroke-width:8;stroke-linecap:round;stroke-linejoin:round;stroke-miterlimit:4;stroke-opacity:1;stroke-dasharray:none"
       d="m 456.58895,468.49402 c -74.00117,-49.35246 -97.28428,-63.76593 -122.25819,-45.87528 -20.03425,14.352 -37.93765,22.77302 -54.10009,47.01669 -10.63154,15.94732 -40.52766,80.58393 -46.81364,49.26469 -11.5301,-57.44744 40.43786,-158.82604 91.64904,-159.99278 58.72586,-1.33794 111.31983,63.85497 131.52288,109.58668 z"
       id="path3767"
       inkscape:connector-curvature="0"
       sodipodi:nodetypes="cssssc"
       inkscape:label="a" />
    <path
       sodipodi:nodetypes="cssssc"
       inkscape:connector-curvature="0"
       id="path3787"
       d="m 501.02862,448.63759 c 27.53415,-17.02758 89.45138,-57.70156 113.34013,-38.38579 40.2373,32.53475 48.03917,51.69108 64.20161,75.93475 10.63154,15.94732 44.91489,65.60495 51.20088,34.28571 11.5301,-57.44744 -35.90704,-174.19369 -87.11822,-175.36043 -58.72586,-1.33794 -121.42135,57.79405 -141.6244,103.52576 z"
       style="fill:#652883;fill-opacity:1;stroke:#000000;stroke-width:8;stroke-linecap:round;stroke-linejoin:round;stroke-miterlimit:4;stroke-opacity:1;stroke-dasharray:none" />
    <path
       style="fill:#652883;fill-opacity:1;stroke:#000000;stroke-width:8;stroke-linecap:round;stroke-linejoin:round;stroke-miterlimit:4;stroke-opacity:1;stroke-dasharray:none"
       d="m 478.81231,426.06761 c 58.58884,-48.48733 141.42135,2.02031 139.40105,52.52793 -2.02031,50.50763 -92.93404,171.72593 -133.34014,175.76654 -40.4061,4.04061 -143.44166,-92.93403 -137.38075,-163.64471 6.06092,-70.71067 84.85282,-90.91373 131.31984,-64.64976 z"
       id="path2989"
       inkscape:connector-curvature="0"
       sodipodi:nodetypes="csssc" />
    <path
       style="fill:url(#linearGradient3834);fill-opacity:1;stroke:#000000;stroke-width:8;stroke-linecap:round;stroke-linejoin:round;stroke-miterlimit:4;stroke-opacity:1;stroke-dasharray:none;display:inline"
       d="m 450.58452,424.24613 c 0,0 -28.57144,-60 -28.57144,-104.28571 0,-44.28571 40.00001,-180.00001 52.85715,-180.00001 12.85715,0 60,145.71429 58.57143,185.71429 -1.42857,40 -31.42857,100 -31.42857,100 z"
       id="path3791"
       inkscape:connector-curvature="0"
       sodipodi:nodetypes="cssscc" />
    <path
       style="fill:url(#linearGradient3860);fill-opacity:1;stroke:#000000;stroke-width:8;stroke-linecap:round;stroke-linejoin:round;stroke-miterlimit:4;stroke-opacity:1;stroke-dasharray:none;display:inline"
       d="m 454.87024,419.96041 c -4.28571,7.85714 -55.71429,-24.28571 -77.14286,-74.28571 -21.42857,-50 -31.42857,-105.71429 -20,-110 11.42857,-4.28572 34.28571,81.42857 52.85714,111.42857 18.57143,30 51.42857,52.85715 51.42857,65.71429 z"
       id="path3793"
       inkscape:connector-curvature="0"
       sodipodi:nodetypes="cssscc" />
    <path
       style="fill:url(#linearGradient3844);fill-opacity:1;stroke:#000000;stroke-width:8;stroke-linecap:round;stroke-linejoin:round;stroke-miterlimit:4;stroke-opacity:1;stroke-dasharray:none;display:inline"
       d="m 494.87023,414.24613 c -6.42857,-7.85714 38.57143,-50 51.42857,-91.42857 12.85715,-41.42857 10,-110 24.28572,-107.14286 14.28571,2.85714 21.42857,110 4.28571,137.14286 -17.14286,27.14286 -62.85714,65.71428 -71.42857,68.57143 -8.57143,2.85714 -8.57143,-7.14286 -8.57143,-7.14286 z"
       id="path3795"
       inkscape:connector-curvature="0"
       sodipodi:nodetypes="cssssc" />
  </g>
</svg>
