<?xml version="1.0" encoding="UTF-8" standalone="no"?>
<!-- Created with Inkscape (http://www.inkscape.org/) -->

<svg
   xmlns:dc="http://purl.org/dc/elements/1.1/"
   xmlns:cc="http://creativecommons.org/ns#"
   xmlns:rdf="http://www.w3.org/1999/02/22-rdf-syntax-ns#"
   xmlns:svg="http://www.w3.org/2000/svg"
   xmlns="http://www.w3.org/2000/svg"
   xmlns:xlink="http://www.w3.org/1999/xlink"
   xmlns:sodipodi="http://sodipodi.sourceforge.net/DTD/sodipodi-0.dtd"
   xmlns:inkscape="http://www.inkscape.org/namespaces/inkscape"
   width="744.09448819"
   height="1052.3622047"
   id="svg2"
   version="1.1"
   inkscape:version="0.48.2 r9819"
   sodipodi:docname="New document 1">
  <defs
     id="defs4">
    <linearGradient
       id="linearGradient3846">
      <stop
         id="stop3848"
         offset="0"
         style="stop-color:#7c1d92;stop-opacity:1;" />
      <stop
         style="stop-color:#e3a8a8;stop-opacity:1;"
         offset="0.60487515"
         id="stop3850" />
      <stop
         id="stop3852"
         offset="1"
         style="stop-color:#f7f4d6;stop-opacity:1;" />
    </linearGradient>
    <linearGradient
       id="linearGradient3828">
      <stop
         style="stop-color:#7c1d92;stop-opacity:1;"
         offset="0"
         id="stop3830" />
      <stop
         id="stop3836"
         offset="0.50826991"
         style="stop-color:#e3a8a8;stop-opacity:1;" />
      <stop
         style="stop-color:#f7f4d6;stop-opacity:1;"
         offset="1"
         id="stop3832" />
    </linearGradient>
    <linearGradient
       id="linearGradient3759">
      <stop
         style="stop-color:#652883;stop-opacity:1;"
         offset="0"
         id="stop3761" />
      <stop
         style="stop-color:#652883;stop-opacity:0;"
         offset="1"
         id="stop3763" />
    </linearGradient>
    <inkscape:path-effect
       effect="spiro"
       id="path-effect2987"
       is_visible="true" />
    <linearGradient
       inkscape:collect="always"
       xlink:href="#linearGradient3828"
       id="linearGradient3834"
       x1="329.11966"
       y1="490.90897"
       x2="333.42264"
       y2="260.59418"
       gradientUnits="userSpaceOnUse" />
    <linearGradient
       inkscape:collect="always"
       xlink:href="#linearGradient3846"
       id="linearGradient3844"
       x1="409.4332"
       y1="506.63367"
       x2="429.28659"
       y2="355.11075"
       gradientUnits="userSpaceOnUse" />
    <linearGradient
       inkscape:collect="always"
       xlink:href="#linearGradient3828"
       id="linearGradient3860"
       x1="253.9917"
       y1="496.01505"
       x2="215.49527"
       y2="360.6546"
       gradientUnits="userSpaceOnUse" />
  </defs>
  <sodipodi:namedview
     id="base"
     pagecolor="#ffffff"
     bordercolor="#666666"
     borderopacity="1.0"
     inkscape:pageopacity="0.0"
     inkscape:pageshadow="2"
     inkscape:zoom="0.49497475"
     inkscape:cx="59.832406"
     inkscape:cy="520"
     inkscape:document-units="px"
     inkscape:current-layer="layer2"
     showgrid="false"
     inkscape:window-width="1600"
     inkscape:window-height="838"
     inkscape:window-x="-8"
     inkscape:window-y="-8"
     inkscape:window-maximized="1" />
  <metadata
     id="metadata7">
    <rdf:RDF>
      <cc:Work
         rdf:about="">
        <dc:format>image/svg+xml</dc:format>
        <dc:type
           rdf:resource="http://purl.org/dc/dcmitype/StillImage" />
        <dc:title></dc:title>
      </cc:Work>
    </rdf:RDF>
  </metadata>
  <g
     inkscape:label="Layer 1"
     inkscape:groupmode="layer"
     id="layer1"
     style="display:inline">
    <path
       style="fill:#652883;fill-opacity:1;stroke:#000000;stroke-width:8;stroke-linecap:round;stroke-linejoin:round;stroke-miterlimit:4;stroke-opacity:1;stroke-dasharray:none"
       d="M 313.14729,593.75293 C 239.14612,544.40047 215.86301,529.987 190.8891,547.87765 c -20.03425,14.352 -37.93765,22.77302 -54.10009,47.01669 -10.63154,15.94732 -40.527656,80.58393 -46.813644,49.26469 -11.530097,-57.44744 40.437864,-158.82604 91.649044,-159.99278 58.72586,-1.33794 111.31983,63.85497 131.52288,109.58668 z"
       id="path3767"
       inkscape:connector-curvature="0"
       sodipodi:nodetypes="cssssc" />
    <path
       sodipodi:nodetypes="cssssc"
       inkscape:connector-curvature="0"
       id="path3787"
       d="m 357.58696,573.8965 c 27.53415,-17.02758 89.45138,-57.70156 113.34013,-38.38579 40.2373,32.53475 48.03917,51.69108 64.20161,75.93475 10.63154,15.94732 44.91489,65.60495 51.20088,34.28571 11.5301,-57.44744 -35.90704,-174.19369 -87.11822,-175.36043 -58.72586,-1.33794 -121.42135,57.79405 -141.6244,103.52576 z"
       style="fill:#652883;fill-opacity:1;stroke:#000000;stroke-width:8;stroke-linecap:round;stroke-linejoin:round;stroke-miterlimit:4;stroke-opacity:1;stroke-dasharray:none" />
    <path
       style="fill:#652883;fill-opacity:1;stroke:#000000;stroke-width:8;stroke-linecap:round;stroke-linejoin:round;stroke-miterlimit:4;stroke-opacity:1;stroke-dasharray:none"
       d="m 335.37065,551.32652 c 58.58884,-48.48733 141.42135,2.02031 139.40105,52.52793 -2.02031,50.50763 -92.93404,171.72593 -133.34014,175.76654 -40.4061,4.04061 -143.44166,-92.93403 -137.38075,-163.64471 6.06092,-70.71067 84.85282,-90.91373 131.31984,-64.64976 z"
       id="path2989"
       inkscape:connector-curvature="0"
       sodipodi:nodetypes="csssc" />
  </g>
  <g
     inkscape:groupmode="layer"
     id="layer2"
     inkscape:label="Layer"
     style="display:inline">
    <path
       style="fill:url(#linearGradient3834);fill-opacity:1;stroke:#000000;stroke-width:8;stroke-linecap:round;stroke-linejoin:round;stroke-miterlimit:4;stroke-opacity:1;stroke-dasharray:none;display:inline;opacity:1"
       d="m 307.14286,549.50504 c 0,0 -28.57144,-60 -28.57144,-104.28571 0,-44.28571 40.00001,-180.00001 52.85715,-180.00001 12.85715,0 60,145.71429 58.57143,185.71429 -1.42857,40 -31.42857,100 -31.42857,100 z"
       id="path3791"
       inkscape:connector-curvature="0"
       sodipodi:nodetypes="cssscc" />
    <path
       style="fill:url(#linearGradient3860);fill-opacity:1;stroke:#000000;stroke-width:8;stroke-linecap:round;stroke-linejoin:round;stroke-miterlimit:4;stroke-opacity:1;stroke-dasharray:none;display:inline"
       d="m 311.42858,545.21932 c -4.28571,7.85714 -55.71429,-24.28571 -77.14286,-74.28571 -21.42857,-50 -31.42857,-105.71429 -20,-110 11.42857,-4.28572 34.28571,81.42857 52.85714,111.42857 18.57143,30 51.42857,52.85715 51.42857,65.71429 z"
       id="path3793"
       inkscape:connector-curvature="0"
       sodipodi:nodetypes="cssscc" />
    <path
       style="fill:url(#linearGradient3844);fill-opacity:1;stroke:#000000;stroke-width:8;stroke-linecap:round;stroke-linejoin:round;stroke-miterlimit:4;stroke-opacity:1;stroke-dasharray:none;display:inline"
       d="M 351.42857,539.50504 C 345,531.6479 390,489.50504 402.85714,448.07647 c 12.85715,-41.42857 10,-110 24.28572,-107.14286 14.28571,2.85714 21.42857,110 4.28571,137.14286 -17.14286,27.14286 -62.85714,65.71428 -71.42857,68.57143 -8.57143,2.85714 -8.57143,-7.14286 -8.57143,-7.14286 z"
       id="path3795"
       inkscape:connector-curvature="0"
       sodipodi:nodetypes="cssssc" />
  </g>
</svg>
