<?xml version="1.0" encoding="utf-8"?>
<!-- Generator: Adobe Illustrator 16.0.0, SVG Export Plug-In . SVG Version: 6.00 Build 0)  -->
<!DOCTYPE svg PUBLIC "-//W3C//DTD SVG 1.1//EN" "http://www.w3.org/Graphics/SVG/1.1/DTD/svg11.dtd">
<svg version="1.1" id="Running" xmlns="http://www.w3.org/2000/svg" xmlns:xlink="http://www.w3.org/1999/xlink" x="0px" y="0px"
	 width="43.306px" height="44.923px" viewBox="0 0 43.306 44.923" enable-background="new 0 0 43.306 44.923" xml:space="preserve">
<path stroke="#000000" stroke-miterlimit="10" d="M26.471,2.438c4.726,1.075,6.912,5.93,4.672,9.075s-7.896,9.613-10.349,7.906
	c-2.454-1.707-3.644-4.615-2.049-10.451C19.94,4.594,22.522,1.539,26.471,2.438z"/>
<path stroke="#000000" stroke-miterlimit="10" d="M21.981,18.683c2.202,0.772,2.978,1.982,2.243,6.294
	c-0.743,4.361-8.445,10.782-10.472,9.345c-2.027-1.438,0.427-6.521,2.667-9.614S19.42,17.785,21.981,18.683z"/>
<path fill="none" stroke="#000000" stroke-width="2" stroke-linecap="round" stroke-linejoin="round" stroke-miterlimit="10" d="
	M15.246,32.974c4.199-1.13,9.708-0.988,11.416,0c1.707,0.988,2.026,7.188,0,9.434c-2.027,2.246,4.481-3.863,8.109-3.414"/>
<path fill="none" stroke="#000000" stroke-width="2" stroke-linecap="round" stroke-linejoin="round" stroke-miterlimit="10" d="
	M14.712,32.179c-0.64,4.119,0.427,9.24-2.561,7.533s-5.409-4.548-4.908-6.828c0.533-2.426-0.427,3.953-3.201,6.02"/>
<path fill="none" stroke="#000000" stroke-width="2" stroke-linecap="round" stroke-linejoin="round" stroke-miterlimit="10" d="
	M20.473,22.821c-3.334-3.234-6.679-11.231-8.987-8.536c-2.309,2.695-4.736,5.788-2.17,7.585"/>
<path fill="none" stroke="#000000" stroke-width="2" stroke-linecap="round" stroke-linejoin="round" stroke-miterlimit="10" d="
	M21.006,22.821c3.456,3.027,7.804,9.793,10.271,6.379c2.469-3.414,3.33-6.649,0.987-8.266"/>
</svg>
