<?xml version="1.0" encoding="utf-8"?>
<!-- Generator: Adobe Illustrator 16.0.0, SVG Export Plug-In . SVG Version: 6.00 Build 0)  -->
<!DOCTYPE svg PUBLIC "-//W3C//DTD SVG 1.1//EN" "http://www.w3.org/Graphics/SVG/1.1/DTD/svg11.dtd">
<svg version="1.1" id="Layer_1" xmlns="http://www.w3.org/2000/svg" xmlns:xlink="http://www.w3.org/1999/xlink" x="0px" y="0px"
	 width="43.307px" height="44.922px" viewBox="0 0 43.307 44.922" enable-background="new 0 0 43.307 44.922" xml:space="preserve">
<g id="Sleeping">
	<path stroke="#000000" stroke-miterlimit="10" d="M15.63,11.196c3.959-2.795,9.032-1.176,9.873,2.592s1.871,12.298-1.038,12.982
		c-2.908,0.684-5.867-0.376-9.142-5.462C12.868,17.495,12.322,13.532,15.63,11.196z"/>
	<path stroke="#000000" stroke-miterlimit="10" d="M21.779,24.646c1.817-1.464,3.255-1.483,6.53,1.414
		c3.313,2.933,6.103,12.823,2.419,14.103c-2.35,0.813-5.319-4.078-6.766-7.613C22.517,29.013,19.665,26.347,21.779,24.646z"/>
	<path fill="none" stroke="#000000" stroke-width="2" stroke-linecap="round" stroke-linejoin="round" stroke-miterlimit="10" d="
		M29.74,37.172c-2.606-2.155-6.11-4.41-6.919-2.875c-2.078,3.947-0.09,4.941-0.09,4.941c2.785,2.965-4.853-2.875-6.918,0.539"/>
	<path fill="none" stroke="#000000" stroke-width="2" stroke-linecap="round" stroke-linejoin="round" stroke-miterlimit="10" d="
		M24.797,27.379c-2.155,2.066-4.133,5.75-5.659,4.313c-0.907-0.854,0.472-2.629,0.19-4.313c-0.191-1.152-1.986-2.381-2.516-1.977"/>
	<path fill="none" stroke="#000000" stroke-width="2" stroke-linecap="round" stroke-linejoin="round" stroke-miterlimit="10" d="
		M27.78,35.674c-0.197,3.025,1.51,3.834-0.736,2.847s-6.026-1.342-7.19-1.569"/>
	<path fill="none" stroke="#000000" stroke-width="2" stroke-linecap="round" stroke-linejoin="round" stroke-miterlimit="10" d="
		M26.954,27.831c-2.065,2.155-3.414,4.94-4.94,5.391c-1.527,0.449-2.431,2.095-2.16,3.234"/>
</g>
</svg>
